<mxfile host="app.diagrams.net" agent="Mozilla/5.0 (Macintosh; Intel Mac OS X 10_15_7) AppleWebKit/605.1.15 (KHTML, like Gecko) Version/18.6 Safari/605.1.15" version="28.1.1">
  <diagram name="Page-1" id="CIxyzyIiB26bGik_g8cE">
    <mxGraphModel dx="1655" dy="617" grid="1" gridSize="10" guides="1" tooltips="1" connect="1" arrows="1" fold="1" page="1" pageScale="1" pageWidth="827" pageHeight="1169" math="0" shadow="0">
      <root>
        <mxCell id="0" />
        <mxCell id="1" parent="0" />
        <mxCell id="L3nYoLrdXufPc5hkxg8h-81" value="orders" style="text;html=1;align=center;verticalAlign=middle;whiteSpace=wrap;rounded=0;" parent="1" vertex="1">
          <mxGeometry x="-630" y="80" width="60" height="30" as="geometry" />
        </mxCell>
        <mxCell id="L3nYoLrdXufPc5hkxg8h-103" value="Customer" style="swimlane;fontStyle=0;childLayout=stackLayout;horizontal=1;startSize=26;horizontalStack=0;resizeParent=1;resizeParentMax=0;resizeLast=0;collapsible=1;marginBottom=0;align=center;fontSize=14;" parent="1" vertex="1">
          <mxGeometry x="-827" y="14" width="160" height="206" as="geometry" />
        </mxCell>
        <mxCell id="L3nYoLrdXufPc5hkxg8h-104" value="CustomerID {PK}" style="text;strokeColor=none;fillColor=none;spacingLeft=4;spacingRight=4;overflow=hidden;rotatable=0;points=[[0,0.5],[1,0.5]];portConstraint=eastwest;fontSize=12;whiteSpace=wrap;html=1;" parent="L3nYoLrdXufPc5hkxg8h-103" vertex="1">
          <mxGeometry y="26" width="160" height="30" as="geometry" />
        </mxCell>
        <mxCell id="L3nYoLrdXufPc5hkxg8h-105" value="FullName" style="text;strokeColor=none;fillColor=none;spacingLeft=4;spacingRight=4;overflow=hidden;rotatable=0;points=[[0,0.5],[1,0.5]];portConstraint=eastwest;fontSize=12;whiteSpace=wrap;html=1;" parent="L3nYoLrdXufPc5hkxg8h-103" vertex="1">
          <mxGeometry y="56" width="160" height="30" as="geometry" />
        </mxCell>
        <mxCell id="L3nYoLrdXufPc5hkxg8h-106" value="Email" style="text;strokeColor=none;fillColor=none;spacingLeft=4;spacingRight=4;overflow=hidden;rotatable=0;points=[[0,0.5],[1,0.5]];portConstraint=eastwest;fontSize=12;whiteSpace=wrap;html=1;" parent="L3nYoLrdXufPc5hkxg8h-103" vertex="1">
          <mxGeometry y="86" width="160" height="30" as="geometry" />
        </mxCell>
        <mxCell id="L3nYoLrdXufPc5hkxg8h-107" value="AddressLine1" style="text;strokeColor=none;fillColor=none;spacingLeft=4;spacingRight=4;overflow=hidden;rotatable=0;points=[[0,0.5],[1,0.5]];portConstraint=eastwest;fontSize=12;whiteSpace=wrap;html=1;" parent="L3nYoLrdXufPc5hkxg8h-103" vertex="1">
          <mxGeometry y="116" width="160" height="30" as="geometry" />
        </mxCell>
        <mxCell id="L3nYoLrdXufPc5hkxg8h-108" value="AddressLine2" style="text;strokeColor=none;fillColor=none;spacingLeft=4;spacingRight=4;overflow=hidden;rotatable=0;points=[[0,0.5],[1,0.5]];portConstraint=eastwest;fontSize=12;whiteSpace=wrap;html=1;" parent="L3nYoLrdXufPc5hkxg8h-103" vertex="1">
          <mxGeometry y="146" width="160" height="30" as="geometry" />
        </mxCell>
        <mxCell id="L3nYoLrdXufPc5hkxg8h-109" value="SuburbID {FK}" style="text;strokeColor=none;fillColor=none;spacingLeft=4;spacingRight=4;overflow=hidden;rotatable=0;points=[[0,0.5],[1,0.5]];portConstraint=eastwest;fontSize=12;whiteSpace=wrap;html=1;" parent="L3nYoLrdXufPc5hkxg8h-103" vertex="1">
          <mxGeometry y="176" width="160" height="30" as="geometry" />
        </mxCell>
        <mxCell id="L3nYoLrdXufPc5hkxg8h-112" value="Order" style="swimlane;fontStyle=0;childLayout=stackLayout;horizontal=1;startSize=26;horizontalStack=0;resizeParent=1;resizeParentMax=0;resizeLast=0;collapsible=1;marginBottom=0;align=center;fontSize=14;" parent="1" vertex="1">
          <mxGeometry x="-540" y="20" width="210" height="200" as="geometry" />
        </mxCell>
        <mxCell id="L3nYoLrdXufPc5hkxg8h-113" value="OrderID {PK}" style="text;strokeColor=none;fillColor=none;spacingLeft=4;spacingRight=4;overflow=hidden;rotatable=0;points=[[0,0.5],[1,0.5]];portConstraint=eastwest;fontSize=12;whiteSpace=wrap;html=1;" parent="L3nYoLrdXufPc5hkxg8h-112" vertex="1">
          <mxGeometry y="26" width="210" height="30" as="geometry" />
        </mxCell>
        <mxCell id="L3nYoLrdXufPc5hkxg8h-114" value="CustomerID {FK}" style="text;strokeColor=none;fillColor=none;spacingLeft=4;spacingRight=4;overflow=hidden;rotatable=0;points=[[0,0.5],[1,0.5]];portConstraint=eastwest;fontSize=12;whiteSpace=wrap;html=1;" parent="L3nYoLrdXufPc5hkxg8h-112" vertex="1">
          <mxGeometry y="56" width="210" height="30" as="geometry" />
        </mxCell>
        <mxCell id="L3nYoLrdXufPc5hkxg8h-115" value="OrderDate" style="text;strokeColor=none;fillColor=none;spacingLeft=4;spacingRight=4;overflow=hidden;rotatable=0;points=[[0,0.5],[1,0.5]];portConstraint=eastwest;fontSize=12;whiteSpace=wrap;html=1;" parent="L3nYoLrdXufPc5hkxg8h-112" vertex="1">
          <mxGeometry y="86" width="210" height="34" as="geometry" />
        </mxCell>
        <mxCell id="L3nYoLrdXufPc5hkxg8h-120" value="TotalPrice" style="text;strokeColor=none;fillColor=none;spacingLeft=4;spacingRight=4;overflow=hidden;rotatable=0;points=[[0,0.5],[1,0.5]];portConstraint=eastwest;fontSize=12;whiteSpace=wrap;html=1;" parent="L3nYoLrdXufPc5hkxg8h-112" vertex="1">
          <mxGeometry y="120" width="210" height="34" as="geometry" />
        </mxCell>
        <mxCell id="L3nYoLrdXufPc5hkxg8h-121" value="Status (Pending,Shipped/Delivered)" style="text;strokeColor=none;fillColor=none;spacingLeft=4;spacingRight=4;overflow=hidden;rotatable=0;points=[[0,0.5],[1,0.5]];portConstraint=eastwest;fontSize=12;whiteSpace=wrap;html=1;" parent="L3nYoLrdXufPc5hkxg8h-112" vertex="1">
          <mxGeometry y="154" width="210" height="46" as="geometry" />
        </mxCell>
        <mxCell id="L3nYoLrdXufPc5hkxg8h-130" value="Review" style="swimlane;fontStyle=0;childLayout=stackLayout;horizontal=1;startSize=26;horizontalStack=0;resizeParent=1;resizeParentMax=0;resizeLast=0;collapsible=1;marginBottom=0;align=center;fontSize=14;" parent="1" vertex="1">
          <mxGeometry x="-360" y="630" width="160" height="176" as="geometry" />
        </mxCell>
        <mxCell id="L3nYoLrdXufPc5hkxg8h-131" value="ReviewID {PK}" style="text;strokeColor=none;fillColor=none;spacingLeft=4;spacingRight=4;overflow=hidden;rotatable=0;points=[[0,0.5],[1,0.5]];portConstraint=eastwest;fontSize=12;whiteSpace=wrap;html=1;" parent="L3nYoLrdXufPc5hkxg8h-130" vertex="1">
          <mxGeometry y="26" width="160" height="30" as="geometry" />
        </mxCell>
        <mxCell id="L3nYoLrdXufPc5hkxg8h-132" value="CustomerID {FK}" style="text;strokeColor=none;fillColor=none;spacingLeft=4;spacingRight=4;overflow=hidden;rotatable=0;points=[[0,0.5],[1,0.5]];portConstraint=eastwest;fontSize=12;whiteSpace=wrap;html=1;" parent="L3nYoLrdXufPc5hkxg8h-130" vertex="1">
          <mxGeometry y="56" width="160" height="30" as="geometry" />
        </mxCell>
        <mxCell id="L3nYoLrdXufPc5hkxg8h-133" value="BookID {FK}" style="text;strokeColor=none;fillColor=none;spacingLeft=4;spacingRight=4;overflow=hidden;rotatable=0;points=[[0,0.5],[1,0.5]];portConstraint=eastwest;fontSize=12;whiteSpace=wrap;html=1;" parent="L3nYoLrdXufPc5hkxg8h-130" vertex="1">
          <mxGeometry y="86" width="160" height="30" as="geometry" />
        </mxCell>
        <mxCell id="L3nYoLrdXufPc5hkxg8h-134" value="Rating" style="text;strokeColor=none;fillColor=none;spacingLeft=4;spacingRight=4;overflow=hidden;rotatable=0;points=[[0,0.5],[1,0.5]];portConstraint=eastwest;fontSize=12;whiteSpace=wrap;html=1;" parent="L3nYoLrdXufPc5hkxg8h-130" vertex="1">
          <mxGeometry y="116" width="160" height="30" as="geometry" />
        </mxCell>
        <mxCell id="L3nYoLrdXufPc5hkxg8h-135" value="ReviewText" style="text;strokeColor=none;fillColor=none;spacingLeft=4;spacingRight=4;overflow=hidden;rotatable=0;points=[[0,0.5],[1,0.5]];portConstraint=eastwest;fontSize=12;whiteSpace=wrap;html=1;" parent="L3nYoLrdXufPc5hkxg8h-130" vertex="1">
          <mxGeometry y="146" width="160" height="30" as="geometry" />
        </mxCell>
        <mxCell id="L3nYoLrdXufPc5hkxg8h-136" value="Book" style="swimlane;fontStyle=0;childLayout=stackLayout;horizontal=1;startSize=26;horizontalStack=0;resizeParent=1;resizeParentMax=0;resizeLast=0;collapsible=1;marginBottom=0;align=center;fontSize=14;" parent="1" vertex="1">
          <mxGeometry x="-180" y="212" width="160" height="206" as="geometry" />
        </mxCell>
        <mxCell id="L3nYoLrdXufPc5hkxg8h-137" value="BookID {PK}" style="text;strokeColor=none;fillColor=none;spacingLeft=4;spacingRight=4;overflow=hidden;rotatable=0;points=[[0,0.5],[1,0.5]];portConstraint=eastwest;fontSize=12;whiteSpace=wrap;html=1;" parent="L3nYoLrdXufPc5hkxg8h-136" vertex="1">
          <mxGeometry y="26" width="160" height="30" as="geometry" />
        </mxCell>
        <mxCell id="L3nYoLrdXufPc5hkxg8h-138" value="Title" style="text;strokeColor=none;fillColor=none;spacingLeft=4;spacingRight=4;overflow=hidden;rotatable=0;points=[[0,0.5],[1,0.5]];portConstraint=eastwest;fontSize=12;whiteSpace=wrap;html=1;" parent="L3nYoLrdXufPc5hkxg8h-136" vertex="1">
          <mxGeometry y="56" width="160" height="30" as="geometry" />
        </mxCell>
        <mxCell id="L3nYoLrdXufPc5hkxg8h-139" value="AuthorID {FK}" style="text;strokeColor=none;fillColor=none;spacingLeft=4;spacingRight=4;overflow=hidden;rotatable=0;points=[[0,0.5],[1,0.5]];portConstraint=eastwest;fontSize=12;whiteSpace=wrap;html=1;" parent="L3nYoLrdXufPc5hkxg8h-136" vertex="1">
          <mxGeometry y="86" width="160" height="30" as="geometry" />
        </mxCell>
        <mxCell id="L3nYoLrdXufPc5hkxg8h-140" value="GenreID {FK}" style="text;strokeColor=none;fillColor=none;spacingLeft=4;spacingRight=4;overflow=hidden;rotatable=0;points=[[0,0.5],[1,0.5]];portConstraint=eastwest;fontSize=12;whiteSpace=wrap;html=1;" parent="L3nYoLrdXufPc5hkxg8h-136" vertex="1">
          <mxGeometry y="116" width="160" height="30" as="geometry" />
        </mxCell>
        <mxCell id="L3nYoLrdXufPc5hkxg8h-141" value="Price" style="text;strokeColor=none;fillColor=none;spacingLeft=4;spacingRight=4;overflow=hidden;rotatable=0;points=[[0,0.5],[1,0.5]];portConstraint=eastwest;fontSize=12;whiteSpace=wrap;html=1;" parent="L3nYoLrdXufPc5hkxg8h-136" vertex="1">
          <mxGeometry y="146" width="160" height="30" as="geometry" />
        </mxCell>
        <mxCell id="L3nYoLrdXufPc5hkxg8h-142" value="QuantityInStock" style="text;strokeColor=none;fillColor=none;spacingLeft=4;spacingRight=4;overflow=hidden;rotatable=0;points=[[0,0.5],[1,0.5]];portConstraint=eastwest;fontSize=12;whiteSpace=wrap;html=1;" parent="L3nYoLrdXufPc5hkxg8h-136" vertex="1">
          <mxGeometry y="176" width="160" height="30" as="geometry" />
        </mxCell>
        <mxCell id="L3nYoLrdXufPc5hkxg8h-145" value="Author" style="swimlane;fontStyle=0;childLayout=stackLayout;horizontal=1;startSize=30;horizontalStack=0;resizeParent=1;resizeParentMax=0;resizeLast=0;collapsible=1;marginBottom=0;whiteSpace=wrap;html=1;" parent="1" vertex="1">
          <mxGeometry x="-390" y="490" width="140" height="90" as="geometry" />
        </mxCell>
        <mxCell id="L3nYoLrdXufPc5hkxg8h-146" value="AuthorID {PK}" style="text;strokeColor=none;fillColor=none;align=left;verticalAlign=middle;spacingLeft=4;spacingRight=4;overflow=hidden;points=[[0,0.5],[1,0.5]];portConstraint=eastwest;rotatable=0;whiteSpace=wrap;html=1;" parent="L3nYoLrdXufPc5hkxg8h-145" vertex="1">
          <mxGeometry y="30" width="140" height="30" as="geometry" />
        </mxCell>
        <mxCell id="L3nYoLrdXufPc5hkxg8h-147" value="AuthorName" style="text;strokeColor=none;fillColor=none;align=left;verticalAlign=middle;spacingLeft=4;spacingRight=4;overflow=hidden;points=[[0,0.5],[1,0.5]];portConstraint=eastwest;rotatable=0;whiteSpace=wrap;html=1;" parent="L3nYoLrdXufPc5hkxg8h-145" vertex="1">
          <mxGeometry y="60" width="140" height="30" as="geometry" />
        </mxCell>
        <mxCell id="L3nYoLrdXufPc5hkxg8h-149" value="" style="endArrow=classic;html=1;rounded=0;" parent="1" edge="1">
          <mxGeometry width="50" height="50" relative="1" as="geometry">
            <mxPoint x="-230" y="520" as="sourcePoint" />
            <mxPoint x="-160" y="440" as="targetPoint" />
            <Array as="points">
              <mxPoint x="-160" y="520" />
            </Array>
          </mxGeometry>
        </mxCell>
        <mxCell id="L3nYoLrdXufPc5hkxg8h-152" value="Payment" style="swimlane;fontStyle=0;childLayout=stackLayout;horizontal=1;startSize=30;horizontalStack=0;resizeParent=1;resizeParentMax=0;resizeLast=0;collapsible=1;marginBottom=0;whiteSpace=wrap;html=1;" parent="1" vertex="1">
          <mxGeometry y="14" width="140" height="180" as="geometry" />
        </mxCell>
        <mxCell id="L3nYoLrdXufPc5hkxg8h-153" value="PaymentID {PK}" style="text;strokeColor=none;fillColor=none;align=left;verticalAlign=middle;spacingLeft=4;spacingRight=4;overflow=hidden;points=[[0,0.5],[1,0.5]];portConstraint=eastwest;rotatable=0;whiteSpace=wrap;html=1;" parent="L3nYoLrdXufPc5hkxg8h-152" vertex="1">
          <mxGeometry y="30" width="140" height="30" as="geometry" />
        </mxCell>
        <mxCell id="L3nYoLrdXufPc5hkxg8h-154" value="OrderID {FK}" style="text;strokeColor=none;fillColor=none;align=left;verticalAlign=middle;spacingLeft=4;spacingRight=4;overflow=hidden;points=[[0,0.5],[1,0.5]];portConstraint=eastwest;rotatable=0;whiteSpace=wrap;html=1;" parent="L3nYoLrdXufPc5hkxg8h-152" vertex="1">
          <mxGeometry y="60" width="140" height="30" as="geometry" />
        </mxCell>
        <mxCell id="L3nYoLrdXufPc5hkxg8h-155" value="PaymentDate" style="text;strokeColor=none;fillColor=none;align=left;verticalAlign=middle;spacingLeft=4;spacingRight=4;overflow=hidden;points=[[0,0.5],[1,0.5]];portConstraint=eastwest;rotatable=0;whiteSpace=wrap;html=1;" parent="L3nYoLrdXufPc5hkxg8h-152" vertex="1">
          <mxGeometry y="90" width="140" height="30" as="geometry" />
        </mxCell>
        <mxCell id="L3nYoLrdXufPc5hkxg8h-156" value="Amount" style="text;strokeColor=none;fillColor=none;align=left;verticalAlign=middle;spacingLeft=4;spacingRight=4;overflow=hidden;points=[[0,0.5],[1,0.5]];portConstraint=eastwest;rotatable=0;whiteSpace=wrap;html=1;" parent="L3nYoLrdXufPc5hkxg8h-152" vertex="1">
          <mxGeometry y="120" width="140" height="30" as="geometry" />
        </mxCell>
        <mxCell id="L3nYoLrdXufPc5hkxg8h-157" value="Method" style="text;strokeColor=none;fillColor=none;align=left;verticalAlign=middle;spacingLeft=4;spacingRight=4;overflow=hidden;points=[[0,0.5],[1,0.5]];portConstraint=eastwest;rotatable=0;whiteSpace=wrap;html=1;" parent="L3nYoLrdXufPc5hkxg8h-152" vertex="1">
          <mxGeometry y="150" width="140" height="30" as="geometry" />
        </mxCell>
        <mxCell id="L3nYoLrdXufPc5hkxg8h-159" value="the order&lt;div&gt;is paid&lt;/div&gt;" style="text;html=1;align=center;verticalAlign=middle;whiteSpace=wrap;rounded=0;" parent="1" vertex="1">
          <mxGeometry x="-200" y="89" width="60" height="30" as="geometry" />
        </mxCell>
        <mxCell id="L3nYoLrdXufPc5hkxg8h-162" value="" style="endArrow=classic;html=1;rounded=0;" parent="1" edge="1">
          <mxGeometry width="50" height="50" relative="1" as="geometry">
            <mxPoint x="-80" y="427.5" as="sourcePoint" />
            <mxPoint x="-190" y="720" as="targetPoint" />
            <Array as="points">
              <mxPoint x="-80" y="720" />
            </Array>
          </mxGeometry>
        </mxCell>
        <mxCell id="L3nYoLrdXufPc5hkxg8h-164" value="wrote" style="text;html=1;align=center;verticalAlign=middle;whiteSpace=wrap;rounded=0;" parent="1" vertex="1">
          <mxGeometry x="-220" y="490" width="60" height="30" as="geometry" />
        </mxCell>
        <mxCell id="L3nYoLrdXufPc5hkxg8h-181" value="City" style="swimlane;fontStyle=0;childLayout=stackLayout;horizontal=1;startSize=30;horizontalStack=0;resizeParent=1;resizeParentMax=0;resizeLast=0;collapsible=1;marginBottom=0;whiteSpace=wrap;html=1;" parent="1" vertex="1">
          <mxGeometry x="-750" y="660" width="140" height="90" as="geometry" />
        </mxCell>
        <mxCell id="L3nYoLrdXufPc5hkxg8h-182" value="CityID {PK}" style="text;strokeColor=none;fillColor=none;align=left;verticalAlign=middle;spacingLeft=4;spacingRight=4;overflow=hidden;points=[[0,0.5],[1,0.5]];portConstraint=eastwest;rotatable=0;whiteSpace=wrap;html=1;" parent="L3nYoLrdXufPc5hkxg8h-181" vertex="1">
          <mxGeometry y="30" width="140" height="30" as="geometry" />
        </mxCell>
        <mxCell id="L3nYoLrdXufPc5hkxg8h-183" value="CityName" style="text;strokeColor=none;fillColor=none;align=left;verticalAlign=middle;spacingLeft=4;spacingRight=4;overflow=hidden;points=[[0,0.5],[1,0.5]];portConstraint=eastwest;rotatable=0;whiteSpace=wrap;html=1;" parent="L3nYoLrdXufPc5hkxg8h-181" vertex="1">
          <mxGeometry y="60" width="140" height="30" as="geometry" />
        </mxCell>
        <mxCell id="L3nYoLrdXufPc5hkxg8h-185" value="Suburb" style="swimlane;fontStyle=0;childLayout=stackLayout;horizontal=1;startSize=30;horizontalStack=0;resizeParent=1;resizeParentMax=0;resizeLast=0;collapsible=1;marginBottom=0;whiteSpace=wrap;html=1;" parent="1" vertex="1">
          <mxGeometry x="-553" y="740" width="140" height="120" as="geometry" />
        </mxCell>
        <mxCell id="L3nYoLrdXufPc5hkxg8h-186" value="SuburbID {PK}" style="text;strokeColor=none;fillColor=none;align=left;verticalAlign=middle;spacingLeft=4;spacingRight=4;overflow=hidden;points=[[0,0.5],[1,0.5]];portConstraint=eastwest;rotatable=0;whiteSpace=wrap;html=1;" parent="L3nYoLrdXufPc5hkxg8h-185" vertex="1">
          <mxGeometry y="30" width="140" height="30" as="geometry" />
        </mxCell>
        <mxCell id="L3nYoLrdXufPc5hkxg8h-187" value="SuburbName" style="text;strokeColor=none;fillColor=none;align=left;verticalAlign=middle;spacingLeft=4;spacingRight=4;overflow=hidden;points=[[0,0.5],[1,0.5]];portConstraint=eastwest;rotatable=0;whiteSpace=wrap;html=1;" parent="L3nYoLrdXufPc5hkxg8h-185" vertex="1">
          <mxGeometry y="60" width="140" height="30" as="geometry" />
        </mxCell>
        <mxCell id="L3nYoLrdXufPc5hkxg8h-188" value="CityID {FK}" style="text;strokeColor=none;fillColor=none;align=left;verticalAlign=middle;spacingLeft=4;spacingRight=4;overflow=hidden;points=[[0,0.5],[1,0.5]];portConstraint=eastwest;rotatable=0;whiteSpace=wrap;html=1;" parent="L3nYoLrdXufPc5hkxg8h-185" vertex="1">
          <mxGeometry y="90" width="140" height="30" as="geometry" />
        </mxCell>
        <mxCell id="L3nYoLrdXufPc5hkxg8h-191" value="" style="endArrow=classic;html=1;rounded=0;" parent="1" edge="1">
          <mxGeometry relative="1" as="geometry">
            <mxPoint x="-640" y="117" as="sourcePoint" />
            <mxPoint x="-570" y="117" as="targetPoint" />
            <Array as="points">
              <mxPoint x="-600" y="116.5" />
            </Array>
          </mxGeometry>
        </mxCell>
        <mxCell id="L3nYoLrdXufPc5hkxg8h-192" value="" style="endArrow=classic;html=1;rounded=0;" parent="1" edge="1">
          <mxGeometry width="50" height="50" relative="1" as="geometry">
            <mxPoint x="-300" y="120" as="sourcePoint" />
            <mxPoint x="-30" y="120" as="targetPoint" />
            <Array as="points">
              <mxPoint x="-250" y="120" />
            </Array>
          </mxGeometry>
        </mxCell>
        <mxCell id="L3nYoLrdXufPc5hkxg8h-195" value="1..*" style="text;html=1;align=center;verticalAlign=middle;whiteSpace=wrap;rounded=0;" parent="1" vertex="1">
          <mxGeometry x="-680" y="140" width="60" height="30" as="geometry" />
        </mxCell>
        <mxCell id="L3nYoLrdXufPc5hkxg8h-196" value="1..*" style="text;html=1;align=center;verticalAlign=middle;whiteSpace=wrap;rounded=0;" parent="1" vertex="1">
          <mxGeometry x="-580" y="140" width="60" height="30" as="geometry" />
        </mxCell>
        <mxCell id="L3nYoLrdXufPc5hkxg8h-199" value="1" style="text;html=1;align=center;verticalAlign=middle;whiteSpace=wrap;rounded=0;" parent="1" vertex="1">
          <mxGeometry x="-350" y="130" width="60" height="30" as="geometry" />
        </mxCell>
        <mxCell id="L3nYoLrdXufPc5hkxg8h-206" value="..*" style="text;html=1;align=center;verticalAlign=middle;whiteSpace=wrap;rounded=0;" parent="1" vertex="1">
          <mxGeometry x="-220" y="194" width="60" height="30" as="geometry" />
        </mxCell>
        <mxCell id="L3nYoLrdXufPc5hkxg8h-209" value="1..*" style="text;html=1;align=center;verticalAlign=middle;whiteSpace=wrap;rounded=0;" parent="1" vertex="1">
          <mxGeometry x="-140" y="420" width="150" height="30" as="geometry" />
        </mxCell>
        <mxCell id="L3nYoLrdXufPc5hkxg8h-211" value="1..*" style="text;html=1;align=center;verticalAlign=middle;whiteSpace=wrap;rounded=0;" parent="1" vertex="1">
          <mxGeometry x="-200" y="720" width="60" height="30" as="geometry" />
        </mxCell>
        <mxCell id="L3nYoLrdXufPc5hkxg8h-213" value="1..*" style="text;html=1;align=center;verticalAlign=middle;whiteSpace=wrap;rounded=0;" parent="1" vertex="1">
          <mxGeometry x="-610" y="780" width="60" height="30" as="geometry" />
        </mxCell>
        <mxCell id="L3nYoLrdXufPc5hkxg8h-214" value="1..*" style="text;html=1;align=center;verticalAlign=middle;whiteSpace=wrap;rounded=0;" parent="1" vertex="1">
          <mxGeometry x="-260" y="530" width="60" height="30" as="geometry" />
        </mxCell>
        <mxCell id="L3nYoLrdXufPc5hkxg8h-215" value="1..*" style="text;html=1;align=center;verticalAlign=middle;whiteSpace=wrap;rounded=0;" parent="1" vertex="1">
          <mxGeometry x="-170" y="418" width="60" height="30" as="geometry" />
        </mxCell>
        <mxCell id="gQ4FADDvWVdpD4EwmHXa-5" value="" style="endArrow=none;html=1;rounded=0;entryX=-0.014;entryY=0.867;entryDx=0;entryDy=0;entryPerimeter=0;" parent="1" target="L3nYoLrdXufPc5hkxg8h-156" edge="1">
          <mxGeometry width="50" height="50" relative="1" as="geometry">
            <mxPoint x="-330" y="160" as="sourcePoint" />
            <mxPoint x="-174" y="160" as="targetPoint" />
          </mxGeometry>
        </mxCell>
        <mxCell id="gQ4FADDvWVdpD4EwmHXa-6" value="1" style="text;html=1;align=center;verticalAlign=middle;whiteSpace=wrap;rounded=0;" parent="1" vertex="1">
          <mxGeometry x="-40" y="130" width="60" height="30" as="geometry" />
        </mxCell>
        <mxCell id="gQ4FADDvWVdpD4EwmHXa-7" value="" style="endArrow=none;html=1;rounded=0;" parent="1" edge="1">
          <mxGeometry width="50" height="50" relative="1" as="geometry">
            <mxPoint x="-670" y="162" as="sourcePoint" />
            <mxPoint x="-540" y="162" as="targetPoint" />
          </mxGeometry>
        </mxCell>
        <mxCell id="gQ4FADDvWVdpD4EwmHXa-8" value="" style="endArrow=classic;html=1;rounded=0;" parent="1" edge="1">
          <mxGeometry width="50" height="50" relative="1" as="geometry">
            <mxPoint x="-580" y="830" as="sourcePoint" />
            <mxPoint x="-800" y="260" as="targetPoint" />
            <Array as="points">
              <mxPoint x="-800" y="830" />
            </Array>
          </mxGeometry>
        </mxCell>
        <mxCell id="gQ4FADDvWVdpD4EwmHXa-9" value="" style="endArrow=none;html=1;rounded=0;exitX=0.294;exitY=1.033;exitDx=0;exitDy=0;exitPerimeter=0;entryX=-0.014;entryY=0.3;entryDx=0;entryDy=0;entryPerimeter=0;" parent="1" source="L3nYoLrdXufPc5hkxg8h-109" target="L3nYoLrdXufPc5hkxg8h-187" edge="1">
          <mxGeometry width="50" height="50" relative="1" as="geometry">
            <mxPoint x="-730" y="410" as="sourcePoint" />
            <mxPoint x="-580" y="810" as="targetPoint" />
            <Array as="points">
              <mxPoint x="-780" y="810" />
            </Array>
          </mxGeometry>
        </mxCell>
        <mxCell id="gQ4FADDvWVdpD4EwmHXa-10" value="1..*" style="text;html=1;align=center;verticalAlign=middle;whiteSpace=wrap;rounded=0;" parent="1" vertex="1">
          <mxGeometry x="-790" y="220" width="60" height="30" as="geometry" />
        </mxCell>
        <mxCell id="gQ4FADDvWVdpD4EwmHXa-13" value="" style="endArrow=none;html=1;rounded=0;entryX=0.664;entryY=-0.017;entryDx=0;entryDy=0;entryPerimeter=0;" parent="1" target="L3nYoLrdXufPc5hkxg8h-185" edge="1">
          <mxGeometry width="50" height="50" relative="1" as="geometry">
            <mxPoint x="-607" y="690" as="sourcePoint" />
            <mxPoint x="-460" y="730" as="targetPoint" />
            <Array as="points">
              <mxPoint x="-460" y="690" />
            </Array>
          </mxGeometry>
        </mxCell>
        <mxCell id="gQ4FADDvWVdpD4EwmHXa-15" value="" style="endArrow=classic;html=1;rounded=0;" parent="1" edge="1">
          <mxGeometry width="50" height="50" relative="1" as="geometry">
            <mxPoint x="-590" y="670" as="sourcePoint" />
            <mxPoint x="-440" y="720" as="targetPoint" />
            <Array as="points">
              <mxPoint x="-440" y="670" />
            </Array>
          </mxGeometry>
        </mxCell>
        <mxCell id="gQ4FADDvWVdpD4EwmHXa-16" value="belongs" style="text;html=1;align=center;verticalAlign=middle;whiteSpace=wrap;rounded=0;" parent="1" vertex="1">
          <mxGeometry x="-550" y="690" width="60" height="30" as="geometry" />
        </mxCell>
        <mxCell id="gQ4FADDvWVdpD4EwmHXa-17" value="lives in suburb" style="text;html=1;align=center;verticalAlign=middle;whiteSpace=wrap;rounded=0;" parent="1" vertex="1">
          <mxGeometry x="-777" y="780" width="60" height="30" as="geometry" />
        </mxCell>
        <mxCell id="gQ4FADDvWVdpD4EwmHXa-18" value="1..*" style="text;html=1;align=center;verticalAlign=middle;whiteSpace=wrap;rounded=0;" parent="1" vertex="1">
          <mxGeometry x="-620" y="690" width="60" height="30" as="geometry" />
        </mxCell>
        <mxCell id="gQ4FADDvWVdpD4EwmHXa-19" value="1..*" style="text;html=1;align=center;verticalAlign=middle;whiteSpace=wrap;rounded=0;" parent="1" vertex="1">
          <mxGeometry x="-500" y="710" width="60" height="30" as="geometry" />
        </mxCell>
        <mxCell id="gQ4FADDvWVdpD4EwmHXa-20" value="" style="endArrow=none;html=1;rounded=0;entryX=0;entryY=0.057;entryDx=0;entryDy=0;entryPerimeter=0;exitX=0.675;exitY=1.067;exitDx=0;exitDy=0;exitPerimeter=0;" parent="1" source="L3nYoLrdXufPc5hkxg8h-109" target="L3nYoLrdXufPc5hkxg8h-130" edge="1">
          <mxGeometry width="50" height="50" relative="1" as="geometry">
            <mxPoint x="-720" y="230" as="sourcePoint" />
            <mxPoint x="-390" y="670" as="targetPoint" />
            <Array as="points">
              <mxPoint x="-720" y="640" />
            </Array>
          </mxGeometry>
        </mxCell>
        <mxCell id="gQ4FADDvWVdpD4EwmHXa-21" value="" style="endArrow=classic;html=1;rounded=0;" parent="1" edge="1">
          <mxGeometry width="50" height="50" relative="1" as="geometry">
            <mxPoint x="-710" y="250" as="sourcePoint" />
            <mxPoint x="-400" y="630" as="targetPoint" />
            <Array as="points">
              <mxPoint x="-710" y="630" />
            </Array>
          </mxGeometry>
        </mxCell>
        <mxCell id="gQ4FADDvWVdpD4EwmHXa-22" value="1..*" style="text;html=1;align=center;verticalAlign=middle;whiteSpace=wrap;rounded=0;" parent="1" vertex="1">
          <mxGeometry x="-730" y="220" width="60" height="30" as="geometry" />
        </mxCell>
        <mxCell id="gQ4FADDvWVdpD4EwmHXa-23" value="1..*" style="text;html=1;align=center;verticalAlign=middle;whiteSpace=wrap;rounded=0;" parent="1" vertex="1">
          <mxGeometry x="-410" y="610" width="60" height="30" as="geometry" />
        </mxCell>
        <mxCell id="gQ4FADDvWVdpD4EwmHXa-24" value="Genre" style="swimlane;fontStyle=0;childLayout=stackLayout;horizontal=1;startSize=30;horizontalStack=0;resizeParent=1;resizeParentMax=0;resizeLast=0;collapsible=1;marginBottom=0;whiteSpace=wrap;html=1;" parent="1" vertex="1">
          <mxGeometry x="90" y="250" width="140" height="90" as="geometry" />
        </mxCell>
        <mxCell id="gQ4FADDvWVdpD4EwmHXa-25" value="GenreID {PK}" style="text;strokeColor=none;fillColor=none;align=left;verticalAlign=middle;spacingLeft=4;spacingRight=4;overflow=hidden;points=[[0,0.5],[1,0.5]];portConstraint=eastwest;rotatable=0;whiteSpace=wrap;html=1;" parent="gQ4FADDvWVdpD4EwmHXa-24" vertex="1">
          <mxGeometry y="30" width="140" height="30" as="geometry" />
        </mxCell>
        <mxCell id="gQ4FADDvWVdpD4EwmHXa-26" value="CustomerID {FK}" style="text;strokeColor=none;fillColor=none;align=left;verticalAlign=middle;spacingLeft=4;spacingRight=4;overflow=hidden;points=[[0,0.5],[1,0.5]];portConstraint=eastwest;rotatable=0;whiteSpace=wrap;html=1;" parent="gQ4FADDvWVdpD4EwmHXa-24" vertex="1">
          <mxGeometry y="60" width="140" height="30" as="geometry" />
        </mxCell>
        <mxCell id="gQ4FADDvWVdpD4EwmHXa-27" value="reviews book" style="text;html=1;align=center;verticalAlign=middle;whiteSpace=wrap;rounded=0;" parent="1" vertex="1">
          <mxGeometry x="-140" y="680" width="60" height="30" as="geometry" />
        </mxCell>
        <mxCell id="gQ4FADDvWVdpD4EwmHXa-28" value="" style="endArrow=none;html=1;rounded=0;exitX=0.673;exitY=-0.133;exitDx=0;exitDy=0;exitPerimeter=0;entryX=0;entryY=1;entryDx=0;entryDy=0;" parent="1" source="L3nYoLrdXufPc5hkxg8h-209" target="L3nYoLrdXufPc5hkxg8h-211" edge="1">
          <mxGeometry width="50" height="50" relative="1" as="geometry">
            <mxPoint x="-50" y="410" as="sourcePoint" />
            <mxPoint x="-150" y="830" as="targetPoint" />
            <Array as="points">
              <mxPoint x="-40" y="750" />
            </Array>
          </mxGeometry>
        </mxCell>
        <mxCell id="gQ4FADDvWVdpD4EwmHXa-29" value="" style="endArrow=classic;html=1;rounded=0;" parent="1" edge="1">
          <mxGeometry width="50" height="50" relative="1" as="geometry">
            <mxPoint x="70" y="290" as="sourcePoint" />
            <mxPoint y="290" as="targetPoint" />
            <Array as="points">
              <mxPoint x="20" y="290" />
            </Array>
          </mxGeometry>
        </mxCell>
        <mxCell id="gQ4FADDvWVdpD4EwmHXa-30" value="" style="endArrow=none;html=1;rounded=0;entryX=0.994;entryY=0.733;entryDx=0;entryDy=0;entryPerimeter=0;exitX=0.021;exitY=0.3;exitDx=0;exitDy=0;exitPerimeter=0;" parent="1" source="gQ4FADDvWVdpD4EwmHXa-26" target="L3nYoLrdXufPc5hkxg8h-139" edge="1">
          <mxGeometry width="50" height="50" relative="1" as="geometry">
            <mxPoint x="62" y="318" as="sourcePoint" />
            <mxPoint x="-10" y="360" as="targetPoint" />
          </mxGeometry>
        </mxCell>
        <mxCell id="gQ4FADDvWVdpD4EwmHXa-31" value="" style="endArrow=none;html=1;rounded=0;entryX=0.073;entryY=0;entryDx=0;entryDy=0;entryPerimeter=0;exitX=1.007;exitY=0.3;exitDx=0;exitDy=0;exitPerimeter=0;" parent="1" source="L3nYoLrdXufPc5hkxg8h-147" target="L3nYoLrdXufPc5hkxg8h-209" edge="1">
          <mxGeometry width="50" height="50" relative="1" as="geometry">
            <mxPoint x="-350" y="380" as="sourcePoint" />
            <mxPoint x="-300" y="330" as="targetPoint" />
            <Array as="points">
              <mxPoint x="-130" y="560" />
            </Array>
          </mxGeometry>
        </mxCell>
        <mxCell id="gQ4FADDvWVdpD4EwmHXa-32" value="1..*" style="text;html=1;align=center;verticalAlign=middle;whiteSpace=wrap;rounded=0;" parent="1" vertex="1">
          <mxGeometry x="50" y="290" width="60" height="30" as="geometry" />
        </mxCell>
        <mxCell id="gQ4FADDvWVdpD4EwmHXa-33" value="1..*" style="text;html=1;align=center;verticalAlign=middle;whiteSpace=wrap;rounded=0;" parent="1" vertex="1">
          <mxGeometry x="-30" y="290" width="60" height="30" as="geometry" />
        </mxCell>
        <mxCell id="gQ4FADDvWVdpD4EwmHXa-34" value="genre of book" style="text;html=1;align=center;verticalAlign=middle;whiteSpace=wrap;rounded=0;" parent="1" vertex="1">
          <mxGeometry x="10" y="260" width="60" height="30" as="geometry" />
        </mxCell>
        <mxCell id="gQ4FADDvWVdpD4EwmHXa-36" value="" style="endArrow=none;html=1;rounded=0;exitX=0.995;exitY=0.957;exitDx=0;exitDy=0;exitPerimeter=0;" parent="1" source="L3nYoLrdXufPc5hkxg8h-121" edge="1">
          <mxGeometry width="50" height="50" relative="1" as="geometry">
            <mxPoint x="-320" y="220" as="sourcePoint" />
            <mxPoint x="-180" y="218" as="targetPoint" />
          </mxGeometry>
        </mxCell>
        <mxCell id="gQ4FADDvWVdpD4EwmHXa-37" value="" style="endArrow=classic;html=1;rounded=0;" parent="1" edge="1">
          <mxGeometry width="50" height="50" relative="1" as="geometry">
            <mxPoint x="-310" y="230" as="sourcePoint" />
            <mxPoint x="-210" y="230" as="targetPoint" />
            <Array as="points">
              <mxPoint x="-260" y="230" />
            </Array>
          </mxGeometry>
        </mxCell>
        <mxCell id="gQ4FADDvWVdpD4EwmHXa-38" value="orders book" style="text;html=1;align=center;verticalAlign=middle;whiteSpace=wrap;rounded=0;" parent="1" vertex="1">
          <mxGeometry x="-290" y="240" width="60" height="30" as="geometry" />
        </mxCell>
        <mxCell id="gQ4FADDvWVdpD4EwmHXa-39" value="..*" style="text;html=1;align=center;verticalAlign=middle;whiteSpace=wrap;rounded=0;" parent="1" vertex="1">
          <mxGeometry x="-340" y="194" width="60" height="30" as="geometry" />
        </mxCell>
        <mxCell id="gQ4FADDvWVdpD4EwmHXa-40" value="Order Book" style="swimlane;fontStyle=0;childLayout=stackLayout;horizontal=1;startSize=30;horizontalStack=0;resizeParent=1;resizeParentMax=0;resizeLast=0;collapsible=1;marginBottom=0;whiteSpace=wrap;html=1;" parent="1" vertex="1">
          <mxGeometry x="-630" y="375" width="140" height="120" as="geometry" />
        </mxCell>
        <mxCell id="gQ4FADDvWVdpD4EwmHXa-41" value="OrderID {FK}" style="text;strokeColor=none;fillColor=none;align=left;verticalAlign=middle;spacingLeft=4;spacingRight=4;overflow=hidden;points=[[0,0.5],[1,0.5]];portConstraint=eastwest;rotatable=0;whiteSpace=wrap;html=1;" parent="gQ4FADDvWVdpD4EwmHXa-40" vertex="1">
          <mxGeometry y="30" width="140" height="30" as="geometry" />
        </mxCell>
        <mxCell id="gQ4FADDvWVdpD4EwmHXa-42" value="BookID {FK}" style="text;strokeColor=none;fillColor=none;align=left;verticalAlign=middle;spacingLeft=4;spacingRight=4;overflow=hidden;points=[[0,0.5],[1,0.5]];portConstraint=eastwest;rotatable=0;whiteSpace=wrap;html=1;" parent="gQ4FADDvWVdpD4EwmHXa-40" vertex="1">
          <mxGeometry y="60" width="140" height="30" as="geometry" />
        </mxCell>
        <mxCell id="gQ4FADDvWVdpD4EwmHXa-43" value="Quantity" style="text;strokeColor=none;fillColor=none;align=left;verticalAlign=middle;spacingLeft=4;spacingRight=4;overflow=hidden;points=[[0,0.5],[1,0.5]];portConstraint=eastwest;rotatable=0;whiteSpace=wrap;html=1;" parent="gQ4FADDvWVdpD4EwmHXa-40" vertex="1">
          <mxGeometry y="90" width="140" height="30" as="geometry" />
        </mxCell>
        <mxCell id="gQ4FADDvWVdpD4EwmHXa-44" value="" style="endArrow=none;html=1;rounded=0;entryX=0;entryY=0.133;entryDx=0;entryDy=0;entryPerimeter=0;" parent="1" target="L3nYoLrdXufPc5hkxg8h-142" edge="1">
          <mxGeometry width="50" height="50" relative="1" as="geometry">
            <mxPoint x="-490" y="392" as="sourcePoint" />
            <mxPoint x="-300" y="330" as="targetPoint" />
          </mxGeometry>
        </mxCell>
        <mxCell id="gQ4FADDvWVdpD4EwmHXa-45" value="" style="endArrow=classic;html=1;rounded=0;" parent="1" edge="1">
          <mxGeometry width="50" height="50" relative="1" as="geometry">
            <mxPoint x="-440" y="380" as="sourcePoint" />
            <mxPoint x="-240" y="380" as="targetPoint" />
          </mxGeometry>
        </mxCell>
        <mxCell id="gQ4FADDvWVdpD4EwmHXa-47" value="order book" style="text;html=1;align=center;verticalAlign=middle;whiteSpace=wrap;rounded=0;" parent="1" vertex="1">
          <mxGeometry x="-370" y="350" width="60" height="30" as="geometry" />
        </mxCell>
        <mxCell id="gQ4FADDvWVdpD4EwmHXa-48" value="1..*" style="text;html=1;align=center;verticalAlign=middle;whiteSpace=wrap;rounded=0;" parent="1" vertex="1">
          <mxGeometry x="-500" y="370" width="60" height="30" as="geometry" />
        </mxCell>
        <mxCell id="gQ4FADDvWVdpD4EwmHXa-49" value="1..*" style="text;html=1;align=center;verticalAlign=middle;whiteSpace=wrap;rounded=0;" parent="1" vertex="1">
          <mxGeometry x="-230" y="370" width="60" height="30" as="geometry" />
        </mxCell>
      </root>
    </mxGraphModel>
  </diagram>
</mxfile>
